<svg version="1.1" xmlns="http://www.w3.org/2000/svg" xmlns:xlink="http://www.w3.org/1999/xlink" width="48" height="48"><defs><linearGradient x1="16.5449" y1="8.7274" x2="61.49994" y2="67.85366" gradientUnits="userSpaceOnUse" id="color-1"><stop offset="0" stop-color="#000000" stop-opacity="0.33"></stop><stop offset="1" stop-color="#000000" stop-opacity="0"></stop></linearGradient><filter id="dropshadow-base"><feColorMatrix type="matrix" values="0 0 0 0 0  0 0 0 0 0  0 0 0 0 0  0 0 0 .8 0"></feColorMatrix> <feOffset dx="0" dy="1"></feOffset> <feGaussianBlur stdDeviation="1"></feGaussianBlur> <feComposite in="SourceGraphic"></feComposite></filter><filter id="dropshadow-banner" x="-10%" y="-10%" width="120%" height="130%"><feColorMatrix type="matrix" values="0 0 0 0 0  0 0 0 0 0  0 0 0 0 0  0 0 0 .4 0"></feColorMatrix> <feOffset dx="0" dy="1"></feOffset> <feGaussianBlur stdDeviation="0.5"></feGaussianBlur> <feComposite in="SourceGraphic"></feComposite></filter></defs><g fill="none" fill-rule="nonzero" stroke="none" stroke-width="none" stroke-linecap="butt" stroke-linejoin="miter" stroke-miterlimit="10" stroke-dasharray="" stroke-dashoffset="0" font-family="none" font-weight="none" font-size="none" text-anchor="none" style="mix-blend-mode: normal"><path d="M2,24c0,-12.15026 9.84974,-22 22,-22c12.15026,0 22,9.84974 22,22c0,12.15026 -9.84974,22 -22,22c-12.15026,0 -22,-9.84974 -22,-22z" id="base 1 5" fill="#00e5ff" stroke="none" stroke-width="1"></path><path d="M17.09932,36.52333c-0.34291,-0.34291 -0.55442,-0.81659 -0.55442,-1.33827v-21.73157c0,-1.04868 0.84318,-1.89186 1.89186,-1.89186h2.35951v-2.83425h5.66848l2.91694,2.91694c0.30018,0.09167 0.56826,0.2556 0.78438,0.47172l15.53274,15.53274c-1.60671,9.62568 -9.46326,17.13569 -19.25682,18.2172z" fill="url(#color-1)" stroke="none" stroke-width="1"></path><path d="M30.7232,13.4535v21.73156c0,1.04867 -0.85027,1.89186 -1.89186,1.89186h-10.39459c-1.04867,0 -1.89186,-0.85027 -1.89186,-1.89186v-21.73156c0,-1.04867 0.84319,-1.89186 1.89186,-1.89186h2.35951v-2.83424h5.66849v2.83424h2.35951c1.04867,0 1.89186,0.84319 1.89894,1.89186zM25.04763,28.5671h-2.83424v2.83424h2.83424zM25.04763,18.64725h-2.83424v7.08561h2.83424z" id="svg_1 1 1" fill="none" stroke="#ffffff" stroke-width="0"></path><path d="M30.7232,13.4535v21.73156c0,1.04867 -0.85027,1.89186 -1.89186,1.89186h-10.39459c-1.04867,0 -1.89186,-0.85027 -1.89186,-1.89186v-21.73156c0,-1.04867 0.84319,-1.89186 1.89186,-1.89186h2.35951v-2.83424h5.66849v2.83424h2.35951c1.04867,0 1.89186,0.84319 1.89894,1.89186zM25.04763,28.5671h-2.83424v2.83424h2.83424zM25.04763,18.64725h-2.83424v7.08561h2.83424z" id="svg_1 1 1" fill="#ef5350" stroke="#ffffff" stroke-width="0"></path><path d="M2,24c0,-12.15026 9.84974,-22 22,-22c12.15026,0 22,9.84974 22,22c0,12.15026 -9.84974,22 -22,22c-12.15026,0 -22,-9.84974 -22,-22z" id="base 1 1 1" fill="none" stroke="none" stroke-width="1"></path><g fill="#000000" stroke="none" stroke-width="1" font-family="Roboto, sans-serif" font-weight="normal" font-size="14" text-anchor="start"><g></g></g><rect x="2" y="2" width="44" height="22" fill="none" stroke="none" stroke-width="1"></rect><path d="M2,24v-22h44v22z" fill="none" stroke="none" stroke-width="1"></path><path d="M2,24v-22h44v22z" fill="none" stroke="none" stroke-width="1"></path><path d="M2,24v-22h44v22z" fill="none" stroke="none" stroke-width="1"></path><path d="M2,24v-22h44v22z" fill="none" stroke="none" stroke-width="1"></path></g></svg>