<?xml version="1.0" encoding="UTF-8" standalone="no"?>
<!-- Created with Inkscape (http://www.inkscape.org/) -->

<svg
   xmlns:dc="http://purl.org/dc/elements/1.1/"
   xmlns:cc="http://creativecommons.org/ns#"
   xmlns:rdf="http://www.w3.org/1999/02/22-rdf-syntax-ns#"
   xmlns:svg="http://www.w3.org/2000/svg"
   xmlns="http://www.w3.org/2000/svg"
   xmlns:xlink="http://www.w3.org/1999/xlink"
   xmlns:sodipodi="http://sodipodi.sourceforge.net/DTD/sodipodi-0.dtd"
   xmlns:inkscape="http://www.inkscape.org/namespaces/inkscape"
   sodipodi:docname="battextr.svg"
   id="svg8"
   version="1.1"
   viewBox="0 0 210 296.99999"
   height="297mm"
   width="210mm"
   inkscape:version="0.92.1 r15371"
   inkscape:export-filename="C:\Users\dsmithies\Documents\svgs\battextr96pinkcyan_nostroke.png"
   inkscape:export-xdpi="13.006452"
   inkscape:export-ydpi="13.006452">
  <sodipodi:namedview
     inkscape:window-maximized="1"
     inkscape:window-y="-8"
     inkscape:window-x="-8"
     inkscape:window-height="987"
     inkscape:window-width="1680"
     inkscape:snap-to-guides="true"
     inkscape:snap-grids="true"
     viewbox-width="96"
     inkscape:guide-bbox="true"
     showguides="true"
     showgrid="false"
     inkscape:current-layer="layer4"
     inkscape:document-units="mm"
     inkscape:cy="560"
     inkscape:cx="-15.455568"
     inkscape:zoom="0.35"
     inkscape:pageshadow="2"
     inkscape:pageopacity="0.0"
     borderopacity="1.0"
     bordercolor="#666666"
     pagecolor="#ffffff"
     id="base"
     viewbox-height="96"
     borderlayer="false"
     showborder="true" />
  <defs
     id="defs2">
    <linearGradient
       inkscape:collect="always"
       id="linearGradient6169">
      <stop
         style="stop-color:#000000;stop-opacity:1;"
         offset="0"
         id="stop6165" />
      <stop
         style="stop-color:#000000;stop-opacity:0;"
         offset="1"
         id="stop6167" />
    </linearGradient>
    <linearGradient
       inkscape:collect="always"
       xlink:href="#linearGradient6169"
       id="linearGradient6171"
       x1="104.47964"
       y1="106.87304"
       x2="179.84515"
       y2="182.23856"
       gradientUnits="userSpaceOnUse" />
    <clipPath
       clipPathUnits="userSpaceOnUse"
       id="clipPath6222">
      <path
         id="path6224"
         d="M 182.33572,52.071429 H 32.354713 c -10.358059,0 -18.747559,8.389556 -18.747559,18.747629 V 239.54762 L 51.102453,202.05238 H 182.33572 c 10.35807,0 18.74756,-8.38955 18.74756,-18.74762 V 70.819058 c 0,-10.358073 -8.38949,-18.747629 -18.74756,-18.747629 z"
         inkscape:connector-curvature="0"
         style="display:inline;fill:#4dd0e1;fill-opacity:1;stroke-width:4.68690443" />
    </clipPath>
    <clipPath
       clipPathUnits="userSpaceOnUse"
       id="clipPath6226">
      <path
         id="path6228"
         d="M 182.33572,52.071429 H 32.354713 c -10.358059,0 -18.747559,8.389556 -18.747559,18.747629 V 239.54762 L 51.102453,202.05238 H 182.33572 c 10.35807,0 18.74756,-8.38955 18.74756,-18.74762 V 70.819058 c 0,-10.358073 -8.38949,-18.747629 -18.74756,-18.747629 z"
         inkscape:connector-curvature="0"
         style="display:inline;fill:#4dd0e1;fill-opacity:1;stroke-width:4.68690443" />
    </clipPath>
    <filter
       inkscape:collect="always"
       style="color-interpolation-filters:sRGB"
       id="filter4548"
       x="-0.028936737"
       width="1.0578735"
       y="-0.020502228"
       height="1.0410045">
      <feGaussianBlur
         inkscape:collect="always"
         stdDeviation="1.8291074"
         id="feGaussianBlur4550" />
    </filter>
  </defs>
  <metadata
     id="metadata5">
    <rdf:RDF>
      <cc:Work
         rdf:about="">
        <dc:format>image/svg+xml</dc:format>
        <dc:type
           rdf:resource="http://purl.org/dc/dcmitype/StillImage" />
        <dc:title />
      </cc:Work>
    </rdf:RDF>
  </metadata>
  <g
     style="display:inline"
     inkscape:label="Message"
     id="layer5"
     inkscape:groupmode="layer">
    <path
       style="fill:#4dd0e1;fill-opacity:1;stroke-width:4.68690443"
       inkscape:connector-curvature="0"
       d="M 182.33572,52.071428 H 32.354714 c -10.35806,0 -18.74756,8.389557 -18.74756,18.747629 V 239.54762 l 37.4953,-37.49524 H 182.33572 c 10.35807,0 18.74756,-8.38955 18.74756,-18.74762 V 70.819057 c 0,-10.358072 -8.38949,-18.747629 -18.74756,-18.747629 z"
       id="path3695"
       inkscape:export-xdpi="6.5"
       inkscape:export-ydpi="6.5"
       inkscape:export-filename="C:\Users\Drew\Documents\SVGs\cyanpink\mipmap-mdpi\ic_launcher.png" />
  </g>
  <g
     id="layer1"
     inkscape:groupmode="layer"
     inkscape:label="Layer 1"
     style="display:inline">
    <g
       inkscape:label="Battery_Shadow"
       id="layer2"
       inkscape:groupmode="layer">
      <path
         style="display:inline;opacity:0.2;fill:url(#linearGradient6171);fill-opacity:1;stroke:none;stroke-width:3.12027764;stroke-miterlimit:4;stroke-dasharray:none;stroke-opacity:1;filter:url(#filter4548)"
         d="m 99.131415,64.077741 c 0,4.160813 0,8.32163 0,12.482443 -6.236097,0.493776 -14.808623,-2.118013 -18.071033,5.081532 -1.367483,8.224184 -0.327721,16.752223 -0.65237,25.106924 0,24.61758 0,49.23516 0,73.85274 1.730158,8.35584 10.649286,12.72375 15.733921,19.15387 25.364077,25.3669 50.712227,50.75036 76.086827,76.10647 5.15219,3.73391 11.91559,1.61613 17.87674,2.1761 11.72867,-0.10679 23.47897,0.21722 35.19364,-0.16857 7.30688,-1.35697 6.84347,-9.38451 6.65672,-15.09341 -0.10604,-30.11851 0.21242,-60.25838 -0.15982,-90.36349 -1.72198,-5.3334 -6.96166,-8.31976 -10.45606,-12.46036 -27.16236,-27.15086 -54.31691,-54.30962 -81.49102,-81.448661 -3.93307,-1.528453 -4.73514,-3.552187 -7.0643,-4.893352 -0.90276,-1.837574 -2.60896,-2.871708 -3.9551,-4.26589 -1.08416,-1.656313 -3.04817,-2.432783 -3.84391,-4.37751 -1.70112,-1.556883 -5.85554,-0.660472 -8.88518,-0.888836 -5.65635,0 -11.3127,0 -16.969055,0 z"
         id="path5332"
         inkscape:connector-curvature="0"
         clip-path="url(#clipPath6226)"
         inkscape:export-xdpi="6.5"
         inkscape:export-ydpi="6.5"
         inkscape:export-filename="C:\Users\Drew\Documents\SVGs\cyanpink\mipmap-mdpi\ic_launcher.png" />
    </g>
    <g
       style="display:inline"
       inkscape:label="Battery"
       id="layer4"
       inkscape:groupmode="layer">
      <path
         style="fill:#ad1457;fill-opacity:1;stroke:none;stroke-width:3.12027764;stroke-miterlimit:4;stroke-dasharray:none;stroke-opacity:1"
         inkscape:connector-curvature="0"
         d="M 133.59493,75.666818 H 123.20331 V 63.184407 H 98.238369 V 75.666818 H 87.846755 c -4.618468,0 -8.332064,3.713604 -8.332064,8.332072 v 95.70919 c 0,4.58733 3.713596,8.33207 8.332064,8.33207 h 45.779435 c 4.58732,0 8.33206,-3.7136 8.33206,-8.33207 V 83.99889 c -0.0354,-4.618468 -3.74474,-8.332072 -8.36332,-8.332072 z m -16.63289,87.377242 h -12.4824 v -12.48251 h 12.4824 z m 0,-24.96493 h -12.4824 v -31.20609 h 12.4824 z"
         id="path3680"
         clip-path="url(#clipPath6222)"
         inkscape:export-xdpi="6.5"
         inkscape:export-ydpi="6.5"
         inkscape:export-filename="C:\Users\Drew\Documents\SVGs\cyanpink\mipmap-mdpi\ic_launcher.png" />
    </g>
  </g>
</svg>
